<svg width="92" height="24" viewBox="0 0 92 24" fill="none" xmlns="http://www.w3.org/2000/svg">
<path d="M8.17345 4.46507H2.81536C-0.246397 4.46507 -0.246397 0 2.81536 0H17.869C20.9308 0 20.9308 4.46507 17.869 4.46507H12.7661V21.6875C12.7661 24.7492 8.17345 24.7492 8.17345 21.6875V4.46507Z" fill="#443D38"/>
<path d="M27.4371 21.6875C27.4371 24.7492 22.8445 24.7492 22.8445 21.8151V2.16875C22.8445 1.02059 23.7375 0 24.8857 0H34.0709C42.8735 0 44.6595 11.7368 37.2603 14.6709L41.8529 20.2842C43.6389 22.9632 40.0669 25.5147 38.0257 22.8356L32.7952 15.4364H27.4371V21.6875ZM27.4371 11.4816H34.0709C38.536 11.4816 38.7912 4.20992 34.0709 4.20992H27.4371V11.4816Z" fill="#443D38"/>
<path d="M79.742 23.9838C73.6185 24.2389 67.3674 20.1566 67.3674 12.1195C67.3674 4.08235 73.7461 0 79.742 0C85.4828 0.255147 91.4788 4.3375 91.4788 12.1195C91.6064 19.9014 85.4828 23.9838 79.742 23.9838ZM79.3593 4.3375C75.6597 4.3375 71.7049 6.88896 71.7049 12.1195C71.7049 17.35 75.6597 19.9014 79.3593 19.9014C83.1865 19.9014 87.1413 17.2224 87.1413 12.1195C87.2689 6.88896 83.1865 4.3375 79.3593 4.3375Z" fill="#443D38"/>
<path d="M47.9765 4.59264C49.2447 4.59264 50.2728 3.56454 50.2728 2.29632C50.2728 1.0281 49.2447 0 47.9765 0C46.7083 0 45.6802 1.0281 45.6802 2.29632C45.6802 3.56454 46.7083 4.59264 47.9765 4.59264Z" fill="#E75C0D"/>
<path d="M45.6802 8.41979C45.6802 5.61318 50.2728 5.4856 50.2728 8.41979V21.815C50.2728 24.6216 45.6802 24.7492 45.6802 21.815V8.41979Z" fill="#46AFE4"/>
<path d="M62.7751 23.9838C62.1372 23.9838 61.4993 23.7287 60.989 23.2184L52.5692 13.6504C51.8038 12.7574 51.8038 11.4816 52.5692 10.5886L61.1166 0.893048C62.0096 -0.127539 63.4129 -0.127539 64.4335 0.637901C65.4541 1.53091 65.4541 2.93422 64.6887 3.95481L57.5446 12.1195L64.6887 20.1566C65.5817 21.1772 65.4541 22.5805 64.4335 23.4735C63.7957 23.7287 63.2854 23.9838 62.7751 23.9838Z" fill="#46AFE4"/>
</svg>
