<svg width="91" height="24" viewBox="0 0 91 24" fill="none" xmlns="http://www.w3.org/2000/svg">
<path d="M7.6544 4.46507H2.29632C-0.76544 4.46507 -0.76544 0 2.29632 0H17.35C20.4117 0 20.4117 4.46507 17.35 4.46507H12.247V21.6875C12.247 24.7492 7.6544 24.7492 7.6544 21.6875V4.46507Z" fill="#443D38"/>
<path d="M26.918 21.6875C26.918 24.7492 22.3253 24.7492 22.3253 21.8151V2.16875C22.3253 1.02059 23.2183 0 24.3665 0H33.5518C42.3543 0 44.1404 11.7368 36.7411 14.6709L41.3338 20.2842C43.1198 22.9632 39.5477 25.5147 37.5066 22.8356L32.276 15.4364H26.918V21.6875ZM26.918 11.4816H33.5518C38.0168 11.4816 38.272 4.20992 33.5518 4.20992H26.918V11.4816Z" fill="#443D38"/>
<path d="M79.2231 23.9838C73.0996 24.2389 66.8485 20.1566 66.8485 12.1195C66.8485 4.08235 73.2272 0 79.2231 0C84.9639 0.255147 90.9599 4.3375 90.9599 12.1195C91.0875 19.9014 84.9639 23.9838 79.2231 23.9838ZM78.8404 4.3375C75.1408 4.3375 71.186 6.88896 71.186 12.1195C71.186 17.35 75.1408 19.9014 78.8404 19.9014C82.6676 19.9014 86.6224 17.2224 86.6224 12.1195C86.75 6.88896 82.6676 4.3375 78.8404 4.3375Z" fill="#443D38"/>
<path d="M47.4573 4.59264C48.7256 4.59264 49.7537 3.56454 49.7537 2.29632C49.7537 1.0281 48.7256 0 47.4573 0C46.1891 0 45.161 1.0281 45.161 2.29632C45.161 3.56454 46.1891 4.59264 47.4573 4.59264Z" fill="#E75C0D"/>
<path d="M45.161 8.41985C45.161 5.61324 49.7537 5.48566 49.7537 8.41985V21.8151C49.7537 24.6217 45.161 24.7492 45.161 21.8151V8.41985Z" fill="#46AFE4"/>
<path d="M62.2558 23.9838C61.6179 23.9838 60.9801 23.7287 60.4698 23.2184L52.0499 13.6504C51.2845 12.7574 51.2845 11.4816 52.0499 10.5886L60.5973 0.893048C61.4903 -0.127539 62.8936 -0.127539 63.9142 0.637901C64.9348 1.53091 64.9348 2.93422 64.1694 3.95481L57.0253 12.1195L64.1694 20.1566C65.0624 21.1772 64.9348 22.5805 63.9142 23.4735C63.2764 23.7287 62.7661 23.9838 62.2558 23.9838Z" fill="#46AFE4"/>
</svg>
