<svg width="50" height="50" viewBox="0 0 50 50" fill="none" xmlns="http://www.w3.org/2000/svg">
<path d="M25 50C38.8071 50 50 38.8071 50 25C50 11.1929 38.8071 0 25 0C11.1929 0 0 11.1929 0 25C0 38.8071 11.1929 50 25 50Z" fill="#3CAFE4"/>
<path d="M22.27 6.10001H24.15L25.08 6.22001C27.2888 6.47034 29.4144 7.20849 31.303 8.38107C33.1916 9.55365 34.7959 11.1313 36 13C38.0483 16.0209 38.8968 19.6969 38.38 23.31C38.0455 25.9543 37.0097 28.4609 35.38 30.57L34.94 31.16C35.0405 31.2317 35.1373 31.3085 35.23 31.39C36.99 33.14 38.75 34.89 40.49 36.65C40.7722 36.983 41.0327 37.3337 41.27 37.7V38.29C41.204 38.5163 41.0867 38.7243 40.9271 38.8977C40.7675 39.0712 40.57 39.2055 40.35 39.29C40.076 39.3831 39.7802 39.3909 39.5016 39.3124C39.2231 39.2338 38.975 39.0726 38.79 38.85C36.95 37.01 35.11 35.18 33.28 33.33C33.1738 33.2316 33.0798 33.1208 33 33L32.48 33.4C30.8613 34.665 29 35.5841 27.0114 36.1001C25.0229 36.6162 22.9496 36.7182 20.92 36.4C17.7241 35.9692 14.7621 34.4882 12.5 32.19C10.8565 30.601 9.60046 28.6554 8.82885 26.5036C8.05724 24.3517 7.79075 22.0513 8.05 19.78C8.31064 16.8777 9.43971 14.1212 11.29 11.87C13.5762 8.95449 16.8604 6.98821 20.51 6.35001C21.09 6.25001 21.68 6.18001 22.27 6.10001ZM23.27 33.85C25.7386 33.8421 28.1494 33.1029 30.1981 31.7256C32.2468 30.3484 33.8415 28.395 34.7807 26.1121C35.7199 23.8291 35.9615 21.3191 35.4751 18.8989C34.9887 16.4787 33.796 14.257 32.0476 12.5142C30.2993 10.7714 28.0737 9.58585 25.652 9.10715C23.2303 8.62846 20.721 8.87812 18.4411 9.82463C16.1612 10.7711 14.2129 12.372 12.8422 14.4251C11.4715 16.4782 10.74 18.8914 10.74 21.36C10.7584 24.6669 12.0802 27.8331 14.4185 30.1715C16.7569 32.5098 19.9231 33.8316 23.23 33.85H23.27Z" fill="white"/>
<path d="M23.57 21.35C25.2174 21.4446 26.766 22.1671 27.8969 23.3688C29.0279 24.5704 29.6553 26.1598 29.65 27.81H16.79C16.7811 26.1721 17.3966 24.5924 18.5112 23.3923C19.6259 22.1922 21.1559 21.4619 22.79 21.35C22.2417 21.3204 21.7046 21.1832 21.2094 20.9461C20.7142 20.709 20.2705 20.3766 19.9037 19.9681C19.163 19.1429 18.7803 18.0573 18.84 16.95C18.8997 15.8427 19.3968 14.8045 20.2219 14.0637C21.0471 13.323 22.1327 12.9403 23.24 13C24.3225 12.9882 25.3669 13.3989 26.1515 14.1447C26.9361 14.8906 27.3991 15.913 27.442 16.9947C27.485 18.0764 27.1046 19.1322 26.3816 19.938C25.6586 20.7437 24.65 21.2359 23.57 21.31V21.35Z" fill="white"/>
</svg>
