<svg width="50" height="50" viewBox="0 0 50 50" fill="none" xmlns="http://www.w3.org/2000/svg">
<path d="M25 50C38.8071 50 50 38.8071 50 25C50 11.1929 38.8071 0 25 0C11.1929 0 0 11.1929 0 25C0 38.8071 11.1929 50 25 50Z" fill="#FFA70D"/>
<path d="M31.25 5.38999C33.3704 5.43671 35.4049 6.23747 36.9883 7.6486C38.5717 9.05973 39.6004 10.9889 39.89 13.09C40.0959 15.0623 39.7497 17.053 38.89 18.84C37.4255 22.0197 35.5127 24.9731 33.21 27.61C33.0033 27.8912 32.7365 28.1227 32.4291 28.2879C32.1217 28.4531 31.7813 28.5478 31.4328 28.565C31.0842 28.5823 30.7362 28.5216 30.414 28.3876C30.0918 28.2535 29.8035 28.0494 29.57 27.79C26.74 24.47 24.18 21 23 16.73C22.654 15.5962 22.5404 14.4043 22.666 13.2256C22.7916 12.0469 23.1537 10.9057 23.7307 9.87025C24.3077 8.8348 25.0877 7.92645 26.0241 7.19957C26.9604 6.47269 28.0338 5.94225 29.18 5.63999C29.8556 5.46404 30.5519 5.37995 31.25 5.38999ZM28.1 14C28.0961 14.6285 28.2785 15.2441 28.6242 15.769C28.9699 16.2939 29.4634 16.7045 30.0423 16.9491C30.6213 17.1937 31.2597 17.2613 31.8771 17.1433C32.4944 17.0253 33.0629 16.727 33.5108 16.286C33.9587 15.8451 34.2659 15.2814 34.3936 14.666C34.5213 14.0505 34.4638 13.4111 34.2283 12.8284C33.9928 12.2457 33.5899 11.7458 33.0705 11.3919C32.5511 11.038 31.9385 10.8459 31.31 10.84C30.4657 10.8347 29.6537 11.1643 29.052 11.7566C28.4503 12.349 28.1079 13.1557 28.1 14Z" fill="white"/>
<path d="M21 44.36C20.7832 44.372 20.5683 44.3132 20.3879 44.1923C20.2075 44.0714 20.0713 43.8951 20 43.69L12.26 22.52C12.211 22.3942 12.1879 22.2597 12.1922 22.1248C12.1966 21.9898 12.2282 21.8571 12.2852 21.7347C12.3422 21.6123 12.4234 21.5027 12.5239 21.4125C12.6244 21.3223 12.7421 21.2534 12.87 21.21C12.9952 21.1607 13.129 21.1372 13.2635 21.1409C13.398 21.1446 13.5303 21.1753 13.6526 21.2314C13.7749 21.2874 13.8847 21.3675 13.9753 21.4669C14.0659 21.5663 14.1355 21.683 14.18 21.81L22 43C22.0506 43.1264 22.075 43.2618 22.0714 43.3979C22.0679 43.534 22.0366 43.6679 21.9795 43.7915C21.9224 43.9151 21.8407 44.0257 21.7393 44.1166C21.6379 44.2074 21.5191 44.2767 21.39 44.32C21.2634 44.3562 21.1313 44.3697 21 44.36Z" fill="white"/>
<path d="M24.65 43.1C24.4332 43.1121 24.2183 43.0532 24.0379 42.9323C23.8575 42.8114 23.7213 42.6351 23.65 42.43L18.65 28.93C18.6005 28.8055 18.5765 28.6722 18.5796 28.5382C18.5826 28.4043 18.6125 28.2722 18.6675 28.15C18.7225 28.0278 18.8016 27.9179 18.8999 27.8269C18.9983 27.7358 19.1139 27.6655 19.24 27.62L24.24 25.69C24.3654 25.6401 24.4994 25.6154 24.6344 25.6173C24.7694 25.6192 24.9026 25.6476 25.0266 25.701C25.1506 25.7544 25.2628 25.8317 25.3569 25.9285C25.451 26.0252 25.5251 26.1396 25.575 26.265C25.6249 26.3904 25.6496 26.5244 25.6477 26.6594C25.6458 26.7944 25.6174 26.9276 25.564 27.0516C25.5106 27.1756 25.4333 27.2878 25.3365 27.3819C25.2398 27.476 25.1254 27.5501 25 27.6L21 29.16L25.62 41.73C25.706 41.9806 25.689 42.2552 25.5728 42.4933C25.4565 42.7314 25.2505 42.9137 25 43C24.8896 43.0522 24.7713 43.086 24.65 43.1Z" fill="white"/>
<path d="M18.14 25.41C17.9996 25.4086 17.8606 25.3815 17.73 25.33C17.4786 25.2101 17.282 24.9992 17.18 24.74L15.9 21.26C15.854 21.1339 15.8334 21 15.8391 20.866C15.8449 20.7319 15.877 20.6003 15.9337 20.4787C15.9903 20.357 16.0704 20.2477 16.1693 20.157C16.2681 20.0663 16.3839 19.996 16.51 19.95C16.6361 19.904 16.77 19.8834 16.904 19.8891C17.0381 19.8949 17.1697 19.927 17.2913 19.9837C17.537 20.0981 17.7272 20.3054 17.82 20.56L18.74 23.05L20.92 22.16C21.0438 22.1066 21.177 22.0787 21.3118 22.0781C21.4466 22.0775 21.5801 22.1042 21.7044 22.1565C21.8286 22.2088 21.941 22.2857 22.0347 22.3825C22.1285 22.4793 22.2017 22.5941 22.25 22.72C22.305 22.8443 22.3342 22.9785 22.3356 23.1144C22.337 23.2503 22.3107 23.3851 22.2583 23.5105C22.2059 23.6359 22.1285 23.7493 22.0308 23.8438C21.933 23.9383 21.8171 24.0118 21.69 24.06L18.53 25.34C18.4055 25.3874 18.2732 25.4111 18.14 25.41Z" fill="white"/>
<path d="M35.09 35C34.8732 35.0121 34.6583 34.9532 34.4779 34.8323C34.2975 34.7114 34.1613 34.5351 34.09 34.33L33.09 31.65C32.9972 31.3954 33.0093 31.1143 33.1237 30.8687C33.2381 30.623 33.4454 30.4328 33.7 30.34C33.9546 30.2472 34.2357 30.2593 34.4813 30.3737C34.727 30.4881 34.9172 30.6954 35.01 30.95L36.01 33.63C36.059 33.7558 36.0821 33.8903 36.0778 34.0252C36.0734 34.1602 36.0418 34.2929 35.9848 34.4153C35.9278 34.5377 35.8466 34.6473 35.7461 34.7375C35.6456 34.8277 35.5279 34.8966 35.4 34.94C35.3002 34.9752 35.1957 34.9955 35.09 35Z" fill="white"/>
<path d="M22.16 36.35C21.8948 36.3977 21.6215 36.3382 21.4002 36.1844C21.1789 36.0306 21.0277 35.7952 20.98 35.53C20.9323 35.2648 20.9918 34.9915 21.1456 34.7702C21.2994 34.5489 21.5348 34.3977 21.8 34.35L37 28.58C37.1254 28.5327 37.2589 28.5106 37.3929 28.5149C37.5268 28.5192 37.6586 28.5499 37.7807 28.6052C37.9028 28.6604 38.0129 28.7392 38.1045 28.8369C38.1962 28.9347 38.2677 29.0496 38.315 29.175C38.3623 29.3004 38.3844 29.4339 38.3801 29.5679C38.3758 29.7018 38.3451 29.8336 38.2898 29.9557C38.2346 30.0778 38.1558 30.1879 38.0581 30.2795C37.9603 30.3712 37.8454 30.4427 37.72 30.49L22.53 36.28C22.4122 36.3266 22.2867 36.3503 22.16 36.35Z" fill="white"/>
<path d="M7.56 35.93C7.29478 35.9791 7.02094 35.9208 6.79871 35.7679C6.57648 35.6151 6.42406 35.3802 6.375 35.115C6.32593 34.8498 6.38424 34.5759 6.53708 34.3537C6.68992 34.1315 6.92478 33.9791 7.19 33.93L15.59 30.63C15.7154 30.5814 15.8492 30.558 15.9836 30.5611C16.1181 30.5642 16.2506 30.5938 16.3737 30.6481C16.4967 30.7024 16.6078 30.7804 16.7007 30.8777C16.7936 30.975 16.8664 31.0896 16.915 31.215C16.9636 31.3404 16.987 31.4742 16.9839 31.6086C16.9808 31.7431 16.9512 31.8756 16.8969 31.9986C16.8426 32.1217 16.7646 32.2328 16.6673 32.3257C16.57 32.4186 16.4554 32.4914 16.33 32.54L7.94 35.85C7.81978 35.9012 7.69068 35.9284 7.56 35.93Z" fill="white"/>
</svg>
