<svg width="50" height="50" viewBox="0 0 50 50" fill="none" xmlns="http://www.w3.org/2000/svg">
<g opacity="0.6">
<path opacity="0.6" d="M25 50C38.8071 50 50 38.8071 50 25C50 11.1929 38.8071 0 25 0C11.1929 0 0 11.1929 0 25C0 38.8071 11.1929 50 25 50Z" fill="black"/>
</g>
<path d="M43.72 18.79C43.6485 19.0847 43.5176 19.3618 43.3353 19.6042C43.1531 19.8467 42.9233 20.0494 42.66 20.2C42.2129 20.3844 41.7467 20.5185 41.27 20.6C41.1719 20.6164 41.0793 20.657 41.0008 20.7181C40.9222 20.7792 40.8601 20.8589 40.82 20.95C40.6807 21.1726 40.6225 21.4365 40.6553 21.697C40.6881 21.9576 40.8099 22.1988 41 22.38C41.1927 22.5945 41.3396 22.846 41.4317 23.1192C41.5239 23.3923 41.5593 23.6814 41.5359 23.9688C41.5125 24.2562 41.4308 24.5357 41.2956 24.7904C41.1605 25.0451 40.9748 25.2695 40.75 25.45C40.45 25.76 40.15 26.07 39.83 26.35C39.4992 26.6429 39.0848 26.8246 38.6453 26.8695C38.2057 26.9143 37.7631 26.8201 37.38 26.6C37.2048 26.514 37.043 26.4028 36.9 26.27C36.7558 26.1173 36.5624 26.0205 36.3537 25.9967C36.1451 25.973 35.9348 26.0237 35.76 26.14C35.613 26.198 35.4844 26.2946 35.3876 26.4195C35.2908 26.5445 35.2295 26.6932 35.21 26.85C35.1363 27.3142 34.9877 27.7634 34.77 28.18C34.6071 28.4621 34.3722 28.696 34.0894 28.8576C33.8065 29.0193 33.4858 29.1029 33.16 29.1C32.64 29.1 32.16 29.1 31.59 29.1C31.1214 29.089 30.67 28.9216 30.3076 28.6244C29.9451 28.3272 29.6925 27.9173 29.59 27.46C29.5446 27.2964 29.5145 27.1291 29.5 26.96C29.4862 26.7666 29.4164 26.5814 29.2992 26.4269C29.1821 26.2725 29.0225 26.1554 28.84 26.09C28.35 25.85 28.08 26.09 27.74 26.32C27.5125 26.5254 27.2446 26.6811 26.9534 26.7769C26.6623 26.8728 26.3543 26.9068 26.0492 26.8766C25.7442 26.8465 25.4488 26.753 25.182 26.602C24.9152 26.451 24.6829 26.246 24.5 26C24.21 25.71 23.91 25.42 23.64 25.11C23.3543 24.7806 23.1793 24.3697 23.1399 23.9354C23.1004 23.5012 23.1984 23.0655 23.42 22.69C23.4852 22.5439 23.573 22.4089 23.68 22.29C23.857 22.1275 23.9696 21.9066 23.9972 21.6679C24.0247 21.4292 23.9654 21.1885 23.83 20.99C23.784 20.8699 23.7052 20.765 23.6028 20.6873C23.5003 20.6095 23.3781 20.562 23.25 20.55C22.5861 20.5343 21.9531 20.2661 21.48 19.8C21.1352 19.4484 20.9322 18.9819 20.91 18.49C20.91 17.98 20.91 17.49 20.91 16.96C20.9128 16.4666 21.0868 15.9894 21.4024 15.61C21.7179 15.2307 22.1553 14.9726 22.64 14.88C22.7947 14.8428 22.9517 14.8161 23.11 14.8C23.52 14.8 23.71 14.58 23.9 14.22C24.17 13.71 23.95 13.41 23.69 13.05C23.5005 12.826 23.3579 12.5663 23.2707 12.2862C23.1835 12.0061 23.1534 11.7113 23.1823 11.4193C23.2112 11.1274 23.2985 10.8442 23.439 10.5867C23.5794 10.3291 23.7702 10.1024 24 9.91998C24.26 9.64998 24.52 9.36998 24.8 9.11998C25.1508 8.78418 25.6057 8.57831 26.0895 8.53648C26.5733 8.49465 27.0568 8.61937 27.46 8.88998C27.5466 8.93265 27.6273 8.98643 27.7 9.04998C27.8599 9.23013 28.0794 9.34651 28.3183 9.37775C28.5571 9.40898 28.7992 9.35296 29 9.21998C29.23 9.07998 29.39 8.96998 29.4 8.68998C29.4223 8.4557 29.4692 8.22442 29.54 7.99998C29.6367 7.51901 29.8965 7.08617 30.2755 6.77461C30.6545 6.46305 31.1294 6.29186 31.62 6.28998H33C33.5044 6.29103 33.9926 6.4686 34.3798 6.7919C34.7671 7.11519 35.0289 7.56382 35.12 8.05998C35.1605 8.22414 35.1872 8.39138 35.2 8.55998C35.2073 8.72058 35.2641 8.87499 35.3626 9.00208C35.461 9.12917 35.5963 9.22274 35.75 9.26998C35.9314 9.36661 36.1381 9.40502 36.3421 9.37997C36.5461 9.35492 36.7374 9.26763 36.89 9.12998C37.1156 8.91121 37.3856 8.74355 37.6818 8.6384C37.9779 8.53324 38.2932 8.49306 38.6063 8.52057C38.9193 8.54808 39.2228 8.64264 39.4961 8.79783C39.7693 8.95302 40.006 9.16521 40.19 9.41998C40.41 9.62998 40.63 9.83998 40.84 10.06C41.2195 10.4223 41.4541 10.9103 41.5001 11.4329C41.5461 11.9555 41.4003 12.477 41.09 12.9C41.0558 12.9637 41.0157 13.024 40.97 13.08C40.7877 13.2435 40.6718 13.4682 40.6441 13.7115C40.6165 13.9548 40.6791 14.1997 40.82 14.4C40.95 14.64 41.06 14.78 41.34 14.81C41.5934 14.8363 41.8442 14.8831 42.09 14.95C42.4673 15.0343 42.8143 15.2206 43.0929 15.4887C43.3716 15.7567 43.5712 16.0962 43.67 16.47C43.67 16.54 43.73 16.6 43.75 16.67L43.72 18.79ZM41.82 17.72V17.36C41.82 16.84 41.82 16.82 41.28 16.73L40.17 16.53C39.9602 16.5155 39.7603 16.4352 39.5987 16.3006C39.4371 16.1659 39.3221 15.9838 39.27 15.78C39.07 15.24 38.85 14.7 38.6 14.17C38.4931 13.9775 38.4465 13.7574 38.4661 13.5381C38.4857 13.3188 38.5707 13.1104 38.71 12.94C38.96 12.61 39.18 12.26 39.43 11.94C39.4728 11.9015 39.507 11.8545 39.5305 11.802C39.5539 11.7494 39.566 11.6925 39.566 11.635C39.566 11.5774 39.5539 11.5206 39.5305 11.468C39.507 11.4155 39.4728 11.3684 39.43 11.33C39.1843 11.1093 38.9507 10.8756 38.73 10.63C38.6924 10.5857 38.6457 10.5502 38.5931 10.5258C38.5404 10.5014 38.483 10.4888 38.425 10.4888C38.367 10.4888 38.3096 10.5014 38.257 10.5258C38.2043 10.5502 38.1575 10.5857 38.12 10.63L37.12 11.37C36.9543 11.4955 36.7565 11.5715 36.5495 11.5892C36.3424 11.6069 36.1346 11.5655 35.95 11.47C35.4 11.22 34.84 10.99 34.27 10.77C34.0825 10.7147 33.9153 10.6056 33.7891 10.4564C33.663 10.3071 33.5833 10.1241 33.56 9.92998C33.49 9.48998 33.41 9.05998 33.34 8.62998C33.3407 8.572 33.3287 8.51457 33.305 8.46166C33.2812 8.40876 33.2463 8.36166 33.2025 8.32361C33.1587 8.28556 33.1072 8.25748 33.0515 8.24131C32.9959 8.22514 32.9373 8.22128 32.88 8.22998C32.54 8.22998 32.2 8.22998 31.88 8.22998C31.8282 8.22291 31.7755 8.22689 31.7254 8.24165C31.6753 8.25642 31.6288 8.28164 31.5891 8.31565C31.5495 8.34966 31.5174 8.39169 31.4952 8.43898C31.4729 8.48626 31.4609 8.53772 31.46 8.58998C31.4 9.00998 31.31 9.42998 31.25 9.84998C31.2277 10.0633 31.1441 10.2657 31.0092 10.4325C30.8743 10.5993 30.694 10.7235 30.49 10.79C29.93 10.99 29.38 11.22 28.84 11.47C28.6552 11.5666 28.4463 11.6076 28.2387 11.588C28.0311 11.5685 27.8336 11.4893 27.67 11.36C27.33 11.11 26.97 10.88 26.67 10.63C26.6324 10.5857 26.5857 10.5502 26.5331 10.5258C26.4804 10.5014 26.423 10.4888 26.365 10.4888C26.307 10.4888 26.2496 10.5014 26.1969 10.5258C26.1443 10.5502 26.0975 10.5857 26.06 10.63C25.84 10.87 25.61 11.1 25.37 11.33C25.3227 11.3628 25.2832 11.4056 25.2544 11.4554C25.2256 11.5052 25.2082 11.5608 25.2034 11.6182C25.1987 11.6755 25.2066 11.7332 25.2268 11.7871C25.2469 11.841 25.2788 11.8898 25.32 11.93C25.58 12.28 25.83 12.65 26.08 13.01C26.2029 13.1632 26.2779 13.3493 26.2957 13.5449C26.3134 13.7405 26.2732 13.9371 26.18 14.11C25.92 14.67 25.68 15.25 25.46 15.82C25.4047 16.0075 25.2957 16.1746 25.1464 16.3008C24.9971 16.427 24.8141 16.5067 24.62 16.53L23.32 16.76C23.2623 16.759 23.2052 16.7709 23.1526 16.7947C23.1001 16.8185 23.0535 16.8537 23.0162 16.8977C22.9789 16.9417 22.9518 16.9934 22.9369 17.0492C22.922 17.1049 22.9196 17.1632 22.93 17.22C22.93 17.56 22.93 17.9 22.93 18.22C22.9212 18.272 22.9239 18.3254 22.9381 18.3762C22.9522 18.4271 22.9773 18.4742 23.0116 18.5143C23.046 18.5544 23.0887 18.5864 23.1368 18.6081C23.1849 18.6298 23.2372 18.6407 23.29 18.64C23.71 18.7 24.13 18.79 24.55 18.85C24.762 18.8729 24.9628 18.9569 25.1279 19.0918C25.293 19.2268 25.4153 19.4068 25.48 19.61C25.6933 20.17 25.9233 20.72 26.17 21.26C26.2642 21.4454 26.3038 21.6538 26.2843 21.8609C26.2649 22.068 26.1871 22.2653 26.06 22.43C25.81 22.77 25.57 23.13 25.32 23.43C25.2772 23.4684 25.243 23.5155 25.2195 23.568C25.1961 23.6206 25.184 23.6774 25.184 23.735C25.184 23.7925 25.1961 23.8494 25.2195 23.902C25.243 23.9545 25.2772 24.0015 25.32 24.04C25.5656 24.2572 25.7992 24.4876 26.02 24.73C26.0565 24.7758 26.1029 24.8128 26.1557 24.8383C26.2085 24.8637 26.2664 24.8769 26.325 24.8769C26.3836 24.8769 26.4415 24.8637 26.4943 24.8383C26.5471 24.8128 26.5935 24.7758 26.63 24.73C26.97 24.48 27.33 24.24 27.63 24C27.7935 23.8699 27.9917 23.791 28.1999 23.7732C28.4081 23.7554 28.6168 23.7995 28.8 23.9C29.33 24.14 29.87 24.36 30.41 24.56C30.6277 24.6266 30.82 24.758 30.9611 24.9367C31.1022 25.1153 31.1856 25.3328 31.2 25.56C31.27 25.99 31.36 26.4 31.42 26.82C31.4209 26.8722 31.4329 26.9237 31.4552 26.971C31.4774 27.0183 31.5095 27.0603 31.5491 27.0943C31.5888 27.1283 31.6353 27.1535 31.6854 27.1683C31.7355 27.1831 31.7882 27.187 31.84 27.18C32.18 27.18 32.52 27.18 32.84 27.18C33.16 27.18 33.26 27.05 33.3 26.78C33.37 26.36 33.46 25.94 33.52 25.52C33.5365 25.3119 33.6177 25.1142 33.7522 24.9546C33.8867 24.795 34.0677 24.6815 34.27 24.63C34.82 24.41 35.37 24.19 35.91 23.94C36.0948 23.8434 36.3037 23.8024 36.5113 23.8219C36.7189 23.8414 36.9164 23.9206 37.08 24.05C37.42 24.29 37.77 24.51 38.08 24.77C38.1204 24.8183 38.1708 24.8571 38.2279 24.8838C38.2849 24.9105 38.3471 24.9243 38.41 24.9243C38.4729 24.9243 38.5351 24.9105 38.5922 24.8838C38.6492 24.8571 38.6996 24.8183 38.74 24.77C38.94 24.54 39.16 24.33 39.38 24.12C39.4308 24.0869 39.4737 24.043 39.5055 23.9914C39.5373 23.9398 39.5573 23.8818 39.564 23.8215C39.5707 23.7613 39.5639 23.7003 39.5442 23.643C39.5245 23.5856 39.4923 23.5334 39.45 23.49C39.19 23.15 38.96 22.79 38.71 22.49C38.5721 22.3304 38.4881 22.1313 38.4702 21.9212C38.4522 21.7111 38.5012 21.5006 38.61 21.32C38.7815 21.0273 38.9255 20.7193 39.04 20.4C39.54 18.87 39.56 19.04 40.98 18.78C41.94 18.56 41.81 18.66 41.82 17.72Z" fill="white"/>
<path d="M19.23 43.72C18.9465 43.6164 18.6694 43.4962 18.4 43.36C18.0529 43.1628 17.7604 42.8821 17.5491 42.5434C17.3379 42.2046 17.2144 41.8185 17.19 41.42C17.2164 41.0595 17.1099 40.7018 16.8907 40.4145C16.6714 40.1271 16.3546 39.9299 16 39.86C15.52 39.72 15.2 39.65 14.8 39.99C14.3669 40.4059 13.8269 40.6932 13.24 40.82C12.8884 40.8932 12.5245 40.8834 12.1773 40.7914C11.8302 40.6994 11.5092 40.5277 11.24 40.29C10.7321 39.8354 10.2481 39.3547 9.79 38.85C9.42064 38.4619 9.19304 37.9605 9.14404 37.4269C9.09504 36.8934 9.22751 36.3589 9.52 35.91C9.75 35.52 10.04 35.17 10.28 34.79C10.3306 34.6649 10.3306 34.5251 10.28 34.4C10.1655 34.1595 10.0653 33.9124 9.98 33.66C9.87 33.11 9.53 32.94 8.98 32.89C8.58054 32.8534 8.18737 32.766 7.81 32.63C7.36413 32.4549 6.98148 32.1493 6.71208 31.7533C6.44267 31.3572 6.29905 30.889 6.3 30.41C6.3 29.85 6.3 29.29 6.3 28.72C6.28224 28.1045 6.49319 27.5042 6.8921 27.0351C7.29102 26.566 7.84961 26.2614 8.46 26.18C8.71877 26.1124 8.98322 26.0689 9.25 26.05C9.42033 26.0613 9.5884 26.0061 9.71892 25.8961C9.84945 25.7861 9.93227 25.6298 9.95 25.46C9.96535 25.3503 10.0028 25.2448 10.06 25.15C10.49 24.58 10.31 24.15 9.9 23.61C9.58959 23.2073 9.35881 22.7491 9.22 22.26C9.11648 21.9147 9.1054 21.5482 9.18788 21.1972C9.27036 20.8463 9.4435 20.5231 9.69 20.26C10.1812 19.7021 10.709 19.1776 11.27 18.69C11.6417 18.3679 12.105 18.1705 12.5948 18.1257C13.0845 18.0808 13.576 18.1908 14 18.44C14.4 18.67 14.77 18.95 15.15 19.22C15.2144 19.2818 15.2976 19.3203 15.3864 19.3294C15.4752 19.3384 15.5645 19.3175 15.64 19.27C15.9637 19.1053 16.2978 18.9617 16.64 18.84C16.7396 18.8137 16.8278 18.7554 16.891 18.6741C16.9543 18.5928 16.989 18.493 16.99 18.39C17.0324 18.016 17.0992 17.6452 17.19 17.28C17.2485 17.0493 17.3874 16.847 17.5817 16.7096C17.776 16.5721 18.013 16.5084 18.25 16.53C18.49 16.5805 18.703 16.7174 18.8487 16.9146C18.9943 17.1119 19.0624 17.3558 19.04 17.6C18.95 18.27 18.82 18.94 18.7 19.6C18.6669 19.782 18.584 19.9513 18.4604 20.0891C18.3368 20.2268 18.1774 20.3275 18 20.38C17.25 20.67 16.51 20.97 15.78 21.3C15.607 21.3889 15.4128 21.4284 15.2188 21.4143C15.0248 21.4002 14.8384 21.333 14.68 21.22L13.24 20.22C12.79 19.91 12.58 19.93 12.19 20.32L11.19 21.32C11.1171 21.3722 11.0563 21.4396 11.012 21.5176C10.9677 21.5955 10.9408 21.6822 10.9332 21.7715C10.9255 21.8609 10.9374 21.9509 10.968 22.0352C10.9985 22.1195 11.0469 22.1962 11.11 22.26C11.45 22.74 11.78 23.26 12.11 23.69C12.2411 23.8591 12.3196 24.0631 12.3356 24.2765C12.3516 24.4898 12.3044 24.7032 12.2 24.89C11.89 25.59 11.59 26.3 11.32 27.01C11.2627 27.2093 11.1493 27.3879 10.9932 27.5244C10.8372 27.6609 10.6451 27.7497 10.44 27.78C9.84 27.88 9.24 27.99 8.65 28.11C8.567 28.112 8.48536 28.1316 8.41043 28.1673C8.33549 28.2031 8.26895 28.2543 8.21515 28.3175C8.16135 28.3808 8.1215 28.4546 8.09821 28.5343C8.07492 28.614 8.06872 28.6977 8.08 28.78C8.08 29.28 8.08 29.78 8.08 30.28C8.07176 30.3623 8.08006 30.4453 8.10441 30.5244C8.12875 30.6034 8.16865 30.6767 8.22176 30.7401C8.27488 30.8034 8.34012 30.8555 8.41367 30.8933C8.48721 30.9311 8.56756 30.9537 8.65 30.96C9.23 31.07 9.8 31.17 10.38 31.26C10.6097 31.2807 10.8279 31.3699 11.0062 31.5161C11.1845 31.6623 11.3148 31.8588 11.38 32.08C11.63 32.78 11.92 33.46 12.23 34.14C12.3384 34.3304 12.3886 34.5484 12.3744 34.767C12.3602 34.9856 12.2822 35.1953 12.15 35.37C11.81 35.84 11.47 36.37 11.15 36.8C11.0869 36.8638 11.0385 36.9405 11.008 37.0248C10.9774 37.1091 10.9655 37.1991 10.9732 37.2885C10.9808 37.3778 11.0077 37.4645 11.052 37.5424C11.0963 37.6204 11.1571 37.6878 11.23 37.74L12.23 38.74C12.6 39.1 12.81 39.12 13.23 38.84C13.65 38.56 14.17 38.19 14.63 37.84C14.8037 37.7063 15.0129 37.6265 15.2315 37.6105C15.4501 37.5945 15.6687 37.643 15.86 37.75C16.55 38.07 17.24 38.36 17.95 38.62C18.1614 38.6799 18.3503 38.8012 18.4927 38.9685C18.6351 39.1359 18.7247 39.3417 18.75 39.56C18.84 40.13 18.94 40.69 19.04 41.25C19.0407 41.3391 19.0603 41.427 19.0974 41.5079C19.1346 41.5889 19.1885 41.6611 19.2556 41.7196C19.3227 41.7782 19.4014 41.8219 19.4867 41.8478C19.5719 41.8738 19.6616 41.8813 19.75 41.87H21.22C21.302 41.8812 21.3854 41.8753 21.4649 41.8527C21.5445 41.8301 21.6186 41.7912 21.6824 41.7387C21.7463 41.6861 21.7986 41.6208 21.836 41.5471C21.8735 41.4733 21.8952 41.3926 21.9 41.31C22.01 40.77 22.11 40.23 22.19 39.69C22.2108 39.4184 22.3197 39.1611 22.5003 38.9571C22.6808 38.7531 22.923 38.6137 23.19 38.56C23.8363 38.3502 24.465 38.0893 25.07 37.78C25.2749 37.6592 25.5116 37.6031 25.7489 37.6192C25.9863 37.6353 26.2132 37.7227 26.4 37.87C26.85 38.2 27.31 38.52 27.77 38.87C27.8355 38.9419 27.9167 38.9977 28.0073 39.033C28.0979 39.0683 28.1955 39.0821 28.2924 39.0734C28.3892 39.0647 28.4827 39.0336 28.5656 38.9827C28.6485 38.9318 28.7184 38.8624 28.77 38.78L29.77 37.78C29.8911 37.6738 29.9661 37.5247 29.9791 37.3642C29.9922 37.2037 29.9423 37.0444 29.84 36.92L28.84 35.45C28.7015 35.2724 28.6198 35.0571 28.6055 34.8323C28.5913 34.6076 28.6451 34.3837 28.76 34.19C29.0743 33.5382 29.3546 32.8707 29.6 32.19C29.6592 31.9637 29.7872 31.7614 29.9664 31.6109C30.1455 31.4605 30.3669 31.3693 30.6 31.35C31.12 31.27 31.6 31.16 32.15 31.08C32.2777 31.0487 32.4085 31.0319 32.54 31.03C32.772 31.0208 32.9992 31.0978 33.1779 31.2461C33.3565 31.3945 33.4739 31.6037 33.5074 31.8335C33.541 32.0633 33.4883 32.2973 33.3595 32.4906C33.2307 32.6838 33.035 32.8225 32.81 32.88C32.41 32.98 31.99 33.01 31.59 33.11C31.4447 33.1657 31.3217 33.2676 31.24 33.4C31.12 33.61 31.09 33.88 30.96 34.07C30.8249 34.2654 30.7638 34.5026 30.7876 34.7389C30.8114 34.9753 30.9186 35.1955 31.09 35.36C31.5788 35.8628 31.876 36.5209 31.93 37.22C31.9467 37.5366 31.9005 37.8534 31.7941 38.152C31.6877 38.4507 31.5231 38.7253 31.31 38.96C30.86 39.44 30.4 39.96 29.91 40.35C29.5132 40.7278 28.9987 40.9578 28.4525 41.0015C27.9064 41.0452 27.3618 40.8999 26.91 40.59C26.56 40.37 26.23 40.1 25.91 39.89C25.7651 39.8346 25.6049 39.8346 25.46 39.89C25.24 39.95 25.04 40.11 24.82 40.15C24.22 40.26 24.04 40.64 23.96 41.21C23.8764 41.7473 23.7147 42.2695 23.48 42.76C23.3002 43.05 23.0628 43.2999 22.7824 43.4943C22.502 43.6887 22.1846 43.8234 21.85 43.89L19.23 43.72Z" fill="white"/>
<path d="M20.51 35.86C18.8232 35.8706 17.2013 35.2107 16.0011 34.0254C14.8009 32.8402 14.1206 31.2267 14.11 29.54C14.0994 27.8532 14.7593 26.2313 15.9445 25.0311C17.1297 23.8308 18.7432 23.1506 20.43 23.14C20.6788 23.1387 20.9191 23.2302 21.104 23.3967C21.2889 23.5631 21.4051 23.7924 21.43 24.04C21.4306 24.2935 21.3349 24.5378 21.1623 24.7234C20.9896 24.9091 20.7529 25.0222 20.5 25.04C19.865 25.0454 19.2381 25.1834 18.6595 25.4451C18.0809 25.7069 17.5633 26.0866 17.14 26.56C16.6972 27.0962 16.3863 27.7288 16.2322 28.4069C16.078 29.085 16.085 29.7898 16.2524 30.4647C16.4199 31.1397 16.7432 31.766 17.1964 32.2934C17.6496 32.8209 18.2201 33.2347 18.8622 33.5019C19.5042 33.769 20.2 33.8819 20.8935 33.8316C21.5871 33.7812 22.2593 33.5691 22.856 33.212C23.4528 32.855 23.9576 32.3631 24.3299 31.7758C24.7023 31.1884 24.9318 30.522 25 29.83C25.0033 29.5885 25.0438 29.3491 25.12 29.12C25.1974 28.9268 25.3394 28.7665 25.5217 28.6662C25.704 28.5659 25.9154 28.5319 26.12 28.57C26.3319 28.6222 26.5209 28.7424 26.6581 28.9121C26.7953 29.0819 26.8733 29.2918 26.88 29.51C26.8783 31.0107 26.3434 32.462 25.3708 33.605C24.3982 34.7479 23.0511 35.5081 21.57 35.75C21.22 35.81 20.86 35.82 20.51 35.86Z" fill="white"/>
<path d="M32.31 22.24C31.4121 22.24 30.5343 21.9737 29.7877 21.4748C29.0411 20.976 28.4592 20.2669 28.1156 19.4374C27.772 18.6078 27.6821 17.6949 27.8572 16.8143C28.0324 15.9336 28.4648 15.1246 29.0997 14.4897C29.7347 13.8548 30.5436 13.4224 31.4243 13.2472C32.305 13.072 33.2178 13.1619 34.0474 13.5056C34.877 13.8492 35.586 14.4311 36.0849 15.1777C36.5837 15.9243 36.85 16.802 36.85 17.7C36.8513 18.2965 36.7348 18.8875 36.5071 19.4389C36.2794 19.9903 35.945 20.4913 35.5232 20.9132C35.1014 21.335 34.6004 21.6694 34.0489 21.8971C33.4975 22.1248 32.9066 22.2413 32.31 22.24ZM32.31 20.33C33.0058 20.3273 33.6722 20.0491 34.1632 19.5561C34.6543 19.0632 34.93 18.3958 34.93 17.7C34.9522 17.3403 34.9005 16.9799 34.7781 16.6409C34.6557 16.302 34.4652 15.9917 34.2183 15.7291C33.9715 15.4666 33.6735 15.2574 33.3427 15.1144C33.0119 14.9714 32.6554 14.8976 32.295 14.8976C31.9346 14.8976 31.5781 14.9714 31.2473 15.1144C30.9165 15.2574 30.6185 15.4666 30.3717 15.7291C30.1248 15.9917 29.9343 16.302 29.8119 16.6409C29.6895 16.9799 29.6378 17.3403 29.66 17.7C29.66 18.0479 29.729 18.3924 29.863 18.7134C29.9971 19.0345 30.1935 19.3257 30.4409 19.5704C30.6883 19.815 30.9818 20.0081 31.3043 20.1385C31.6269 20.2688 31.9721 20.3339 32.32 20.33H32.31Z" fill="white"/>
</svg>
