<svg width="24" height="24" viewBox="0 0 24 24" fill="none" xmlns="http://www.w3.org/2000/svg">
<g clip-path="url(#clip0_5534_666)">
<path d="M12 23.96C18.6274 23.96 24 18.5874 24 11.96C24 5.33254 18.6274 -0.0400391 12 -0.0400391C5.37258 -0.0400391 0 5.33254 0 11.96C0 18.5874 5.37258 23.96 12 23.96Z" fill="#83CFEF"/>
<path d="M12 2C13.9778 2 15.9112 2.58649 17.5557 3.6853C19.2002 4.78412 20.4819 6.3459 21.2388 8.17317C21.9957 10.0004 22.1937 12.0111 21.8079 13.9509C21.422 15.8907 20.4696 17.6725 19.0711 19.0711C17.6725 20.4696 15.8907 21.422 13.9509 21.8079C12.0111 22.1937 10.0004 21.9957 8.17317 21.2388C6.34591 20.4819 4.78412 19.2002 3.68531 17.5557C2.5865 15.9112 2.00001 13.9778 2.00001 12C2.00001 9.34784 3.05357 6.8043 4.92894 4.92893C6.8043 3.05357 9.34784 2 12 2ZM12 0C9.62663 0 7.30655 0.703788 5.33316 2.02236C3.35977 3.34094 1.8217 5.21509 0.913451 7.4078C0.00519943 9.60051 -0.232441 12.0133 0.230582 14.3411C0.693605 16.6689 1.83649 18.8071 3.51472 20.4853C5.19295 22.1635 7.33115 23.3064 9.65892 23.7694C11.9867 24.2324 14.3995 23.9948 16.5922 23.0866C18.7849 22.1783 20.6591 20.6402 21.9776 18.6668C23.2962 16.6935 24 14.3734 24 12C24 8.8174 22.7357 5.76515 20.4853 3.51472C18.2348 1.26428 15.1826 0 12 0V0Z" fill="#83CFEF"/>
<path d="M11.9999 12.01C14.3913 12.01 16.3299 10.0714 16.3299 7.67998C16.3299 5.28858 14.3913 3.34998 11.9999 3.34998C9.60853 3.34998 7.66992 5.28858 7.66992 7.67998C7.66992 10.0714 9.60853 12.01 11.9999 12.01Z" fill="white"/>
<path d="M12.3201 13.3199H11.7001C6.61009 13.4499 4.33009 15.1199 3.34009 16.9099C4.21508 18.4394 5.47868 19.7106 7.00294 20.5946C8.5272 21.4787 10.258 21.9443 12.0201 21.9443C13.7822 21.9443 15.513 21.4787 17.0372 20.5946C18.5615 19.7106 19.8251 18.4394 20.7001 16.9099C19.6901 15.1199 17.4101 13.4499 12.3201 13.3199Z" fill="white"/>
</g>
<defs>
<clipPath id="clip0_5534_666">
<rect width="24" height="24" fill="white"/>
</clipPath>
</defs>
</svg>
